<?xml version="1.0" encoding="UTF-8"?>
<!DOCTYPE svg PUBLIC "-//W3C//DTD SVG 1.1//EN" "http://www.w3.org/Graphics/SVG/1.1/DTD/svg11.dtd">
<!-- Creator: CorelDRAW -->
<svg xmlns="http://www.w3.org/2000/svg" xml:space="preserve" width="6.82666in" height="6.82666in" style="shape-rendering:geometricPrecision; text-rendering:geometricPrecision; image-rendering:optimizeQuality; fill-rule:evenodd; clip-rule:evenodd"
viewBox="0 0 6.82666 6.82666"
 xmlns:xlink="http://www.w3.org/1999/xlink">
 <defs>
  <style type="text/css">
   <![CDATA[
    .fil1 {fill:none}
    .fil0 {fill:#404040;fill-rule:nonzero}
   ]]>
  </style>
 </defs>
 <g id="Layer_x0020_1">
  <metadata id="CorelCorpID_0Corel-Layer"/>
  <g id="_554253040">
   <path id="_554253832" class="fil0" d="M1.02667 1.39999l4.77333 0c0.0477756,0 0.0911378,0.0194803 0.122496,0.0508386l-0.000208661 0.000208661c0.0315039,0.0315945 0.0510472,0.0749016 0.0510472,0.122287l0 3.68002c0,0.0473819 -0.0195551,0.0906929 -0.0510512,0.122283l0.000208661 0.000208661c-0.0313622,0.0313622 -0.0747283,0.0508425 -0.122492,0.0508425l-4.77333 0c-0.0477638,0 -0.0911299,-0.0194685 -0.1225,-0.0508386 -0.0313622,-0.0313622 -0.0508346,-0.0747244 -0.0508346,-0.122496l0 -3.68002c0,-0.0477795 0.0194724,-0.0911378 0.0508346,-0.1225l0.000208661 0.000208661c0.0315906,-0.0314961 0.0748937,-0.0510433 0.122291,-0.0510433zm4.73333 0.213339l-4.69333 0 0 3.60001 4.69333 0 0 -3.60001z"/>
   <path id="_554253304" class="fil0" d="M1.32618 4.61791c-0.0416496,0.0416496 -0.0416496,0.109185 0,0.150835 0.0416496,0.0416496 0.109185,0.0416496 0.150835,0l1.31125 -1.31125 0.991248 0.991248c0.0416496,0.0416496 0.109185,0.0416496 0.150835,0 0.0416496,-0.0416496 0.0416496,-0.109185 0,-0.150835l-1.06607 -1.06607 -0.000590551 -0.000606299c-0.0416535,-0.0416535 -0.109197,-0.0416535 -0.15085,0l7.87402e-006 7.87402e-006 -1.38667 1.38667z"/>
   <path id="_554253592" class="fil0" d="M3.29951 3.81792c-0.0416496,0.0416496 -0.0416496,0.109185 0,0.150835 0.0416496,0.0416496 0.109185,0.0416496 0.150835,0l0.908051 -0.908051 0.991248 0.991248c0.0416496,0.0416496 0.109185,0.0416496 0.150835,0 0.0416496,-0.0416496 0.0416496,-0.109185 0,-0.150835l-1.06607 -1.06607 -0.000590551 -0.000606299c-0.0416535,-0.0416535 -0.109197,-0.0416535 -0.15085,0l7.87402e-006 7.87402e-006 -0.983469 0.983469z"/>
   <path id="_554253280" class="fil0" d="M2.14826 2.02666c0.147264,0 0.280602,0.0597008 0.377114,0.15622 0.0965197,0.0965118 0.15622,0.229846 0.15622,0.377114 0,0.147264 -0.0597008,0.280602 -0.15622,0.377114 -0.0965118,0.0965197 -0.22985,0.15622 -0.377114,0.15622 -0.147268,0 -0.280602,-0.0597008 -0.377114,-0.15622 -0.0965197,-0.0965118 -0.15622,-0.22985 -0.15622,-0.377114 0,-0.147268 0.0597008,-0.280602 0.15622,-0.377114 0.0965118,-0.0965197 0.229846,-0.15622 0.377114,-0.15622zm0.22628 0.307055c-0.0578976,-0.0578976 -0.137906,-0.0937165 -0.22628,-0.0937165 -0.088378,0 -0.168382,0.0358189 -0.22628,0.0937165 -0.0578976,0.0578976 -0.0937165,0.137902 -0.0937165,0.22628 0,0.088374 0.0358189,0.168382 0.0937165,0.22628 0.0578976,0.0578976 0.137902,0.0937165 0.22628,0.0937165 0.088374,0 0.168382,-0.0358189 0.22628,-0.0937165 0.0578976,-0.0578976 0.0937165,-0.137906 0.0937165,-0.22628 0,-0.088378 -0.0358189,-0.168382 -0.0937165,-0.22628z"/>
  </g>
 </g>
 <rect class="fil1" width="6.82666" height="6.82666"/>
</svg>
