<?xml version="1.0" encoding="utf-8"?>
<!-- Generator: Adobe Illustrator 17.0.0, SVG Export Plug-In . SVG Version: 6.00 Build 0)  -->
<!DOCTYPE svg PUBLIC "-//W3C//DTD SVG 1.1//EN" "http://www.w3.org/Graphics/SVG/1.1/DTD/svg11.dtd">
<svg version="1.1" id="Layer_1" xmlns="http://www.w3.org/2000/svg" xmlns:xlink="http://www.w3.org/1999/xlink" x="0px" y="0px"
	 width="600px" height="450px" viewBox="0 0 600 450" enable-background="new 0 0 600 450" xml:space="preserve">
<g>
	<path fill="#454545" d="M57.15,191.765v-83.571h11.779l26.783,42.282c6.2,9.795,11.035,18.599,15.003,27.154l0.248-0.124
		c-0.992-11.159-1.24-21.327-1.24-34.346v-34.966h10.167v83.571h-10.912L82.445,149.36c-5.828-9.299-11.408-18.847-15.624-27.898
		l-0.372,0.124c0.62,10.54,0.868,20.583,0.868,34.47v35.71L57.15,191.765L57.15,191.765z"/>
	<path fill="#454545" d="M192.678,161.263c0,22.195-15.375,31.866-29.882,31.866c-16.243,0-28.766-11.903-28.766-30.874
		c0-20.087,13.143-31.866,29.758-31.866C181.023,130.389,192.678,142.912,192.678,161.263z M145.065,161.883
		c0,13.143,7.563,23.062,18.227,23.062c10.416,0,18.227-9.795,18.227-23.311c0-10.167-5.084-23.062-17.979-23.062
		C150.644,138.573,145.065,150.476,145.065,161.883z"/>
	<path fill="#454545" d="M244.883,114.89c0.124,3.72-2.604,6.695-6.943,6.695c-3.844,0-6.572-2.976-6.572-6.695
		c0-3.844,2.852-6.82,6.82-6.82C242.279,108.07,244.883,111.046,244.883,114.89z M232.731,191.765v-60.013h10.912v60.013H232.731z"
		/>
	<path fill="#454545" d="M261.746,147.996c0-6.2-0.124-11.283-0.496-16.243h9.547l0.496,9.671h0.372
		c3.348-5.704,8.928-11.035,18.847-11.035c8.184,0,14.384,4.959,16.987,12.027h0.248c1.859-3.348,4.216-5.952,6.695-7.812
		c3.596-2.728,7.563-4.216,13.268-4.216c7.936,0,19.715,5.208,19.715,26.039v35.338h-10.663v-33.974
		c0-11.531-4.216-18.475-13.02-18.475c-6.2,0-11.035,4.588-12.896,9.919c-0.496,1.488-0.868,3.472-0.868,5.456v37.074h-10.664
		v-35.958c0-9.547-4.215-16.491-12.523-16.491c-6.82,0-11.779,5.456-13.515,10.912c-0.62,1.612-0.868,3.472-0.868,5.332v36.206
		h-10.664v-43.77H261.746z"/>
	<path fill="#454545" d="M398.393,191.765l-0.868-7.563h-0.372c-3.348,4.711-9.795,8.927-18.351,8.927
		c-12.151,0-18.351-8.555-18.351-17.235c0-14.507,12.895-22.443,36.082-22.319v-1.24c0-4.96-1.364-13.887-13.64-13.887
		c-5.58,0-11.407,1.736-15.623,4.464l-2.479-7.192c4.959-3.224,12.151-5.332,19.715-5.332c18.351,0,22.814,12.523,22.814,24.551
		v22.442c0,5.208,0.248,10.292,0.992,14.383h-9.919V191.765z M396.781,161.139c-11.903-0.248-25.419,1.86-25.419,13.516
		c0,7.067,4.712,10.415,10.291,10.415c7.812,0,12.771-4.959,14.508-10.043c0.372-1.116,0.62-2.355,0.62-3.472V161.139z"/>
	<path fill="#454545" d="M476.635,131.753c-0.248,4.34-0.496,9.176-0.496,16.491v34.842c0,13.763-2.728,22.195-8.556,27.403
		c-5.827,5.456-14.259,7.191-21.822,7.191c-7.191,0-15.127-1.736-19.963-4.96l2.728-8.307c3.968,2.479,10.168,4.711,17.607,4.711
		c11.159,0,19.343-5.828,19.343-20.955v-6.696h-0.248c-3.348,5.58-9.796,10.043-19.095,10.043c-14.88,0-25.543-12.647-25.543-29.262
		c0-20.335,13.268-31.866,27.03-31.866c10.416,0,16.119,5.456,18.724,10.416h0.248l0.496-9.052h9.547V131.753z M465.352,155.435
		c0-1.86-0.124-3.472-0.62-4.959c-1.983-6.324-7.315-11.531-15.251-11.531c-10.416,0-17.855,8.803-17.855,22.69
		c0,11.779,5.952,21.575,17.731,21.575c6.695,0,12.771-4.216,15.127-11.159c0.62-1.86,0.868-3.968,0.868-5.828V155.435z"/>
	<path fill="#454545" d="M500.321,163.743c0.248,14.755,9.672,20.831,20.583,20.831c7.812,0,12.523-1.364,16.615-3.1l1.859,7.812
		c-3.844,1.736-10.415,3.72-19.963,3.72c-18.475,0-29.51-12.151-29.51-30.254s10.663-32.362,28.146-32.362
		c19.591,0,24.798,17.235,24.798,28.271c0,2.232-0.247,3.968-0.371,5.083L500.321,163.743L500.321,163.743z M532.311,155.931
		c0.124-6.943-2.852-17.731-15.127-17.731c-11.035,0-15.871,10.167-16.739,17.731H532.311z"/>
	<path fill="#454545" d="M110.965,340.566l-0.868-7.563h-0.372c-3.348,4.712-9.795,8.928-18.351,8.928
		c-12.151,0-18.351-8.556-18.351-17.235c0-14.507,12.895-22.442,36.082-22.318v-1.24c0-4.96-1.364-13.888-13.64-13.888
		c-5.58,0-11.407,1.736-15.623,4.464l-2.479-7.191c4.959-3.224,12.151-5.332,19.715-5.332c18.351,0,22.814,12.523,22.814,24.551
		v22.443c0,5.207,0.248,10.291,0.992,14.383h-9.919V340.566z M109.353,309.94c-11.903-0.248-25.419,1.859-25.419,13.515
		c0,7.068,4.712,10.416,10.292,10.416c7.812,0,12.771-4.96,14.507-10.044c0.372-1.116,0.62-2.355,0.62-3.472
		C109.353,320.355,109.353,309.94,109.353,309.94z"/>
	<path fill="#454545" d="M140.726,280.553l11.779,33.727c1.984,5.455,3.596,10.415,4.836,15.375h0.372
		c1.364-4.96,3.1-9.92,5.083-15.375l11.655-33.727h11.408L162.3,340.566h-10.415l-22.815-60.013H140.726z"/>
	<path fill="#454545" d="M228.888,340.566l-0.868-7.563h-0.372c-3.348,4.712-9.795,8.928-18.351,8.928
		c-12.151,0-18.351-8.556-18.351-17.235c0-14.507,12.895-22.442,36.082-22.318v-1.24c0-4.96-1.364-13.888-13.64-13.888
		c-5.58,0-11.407,1.736-15.623,4.464l-2.479-7.191c4.959-3.224,12.151-5.332,19.715-5.332c18.351,0,22.814,12.523,22.814,24.551
		v22.443c0,5.207,0.248,10.291,0.992,14.383h-9.919V340.566z M227.276,309.94c-11.903-0.248-25.419,1.859-25.419,13.515
		c0,7.068,4.712,10.416,10.292,10.416c7.812,0,12.771-4.96,14.507-10.044c0.372-1.116,0.62-2.355,0.62-3.472L227.276,309.94
		L227.276,309.94z"/>
	<path fill="#454545" d="M267.576,263.69c0.124,3.72-2.604,6.696-6.943,6.696c-3.844,0-6.572-2.977-6.572-6.696
		c0-3.844,2.852-6.819,6.82-6.819C264.972,256.87,267.576,259.846,267.576,263.69z M255.425,340.566v-60.013h10.912v60.013H255.425z
		"/>
	<path fill="#454545" d="M284.44,252.531h10.912v88.035H284.44V252.531z"/>
	<path fill="#454545" d="M346.934,340.566l-0.868-7.563h-0.372c-3.348,4.712-9.796,8.928-18.351,8.928
		c-12.151,0-18.352-8.556-18.352-17.235c0-14.507,12.896-22.442,36.082-22.318v-1.24c0-4.96-1.364-13.888-13.639-13.888
		c-5.58,0-11.408,1.736-15.624,4.464l-2.479-7.191c4.96-3.224,12.151-5.332,19.715-5.332c18.351,0,22.814,12.523,22.814,24.551
		v22.443c0,5.207,0.248,10.291,0.992,14.383h-9.918V340.566z M345.322,309.94c-11.903-0.248-25.419,1.859-25.419,13.515
		c0,7.068,4.712,10.416,10.292,10.416c7.812,0,12.771-4.96,14.507-10.044c0.372-1.116,0.62-2.355,0.62-3.472L345.322,309.94
		L345.322,309.94z"/>
	<path fill="#454545" d="M372.975,340.566c0.248-4.092,0.495-10.167,0.495-15.499v-72.536h10.788v37.694h0.248
		c3.844-6.696,10.787-11.036,20.459-11.036c14.879,0,25.418,12.399,25.294,30.627c0,21.45-13.515,32.114-26.906,32.114
		c-8.68,0-15.623-3.349-20.087-11.284h-0.372l-0.496,9.92H372.975z M384.258,316.511c0,1.364,0.248,2.728,0.496,3.968
		c2.107,7.563,8.432,12.771,16.367,12.771c11.407,0,18.227-9.3,18.227-23.062c0-12.027-6.2-22.319-17.855-22.319
		c-7.439,0-14.383,5.084-16.614,13.392c-0.248,1.24-0.62,2.728-0.62,4.464L384.258,316.511L384.258,316.511z"/>
	<path fill="#454545" d="M444.025,252.531h10.911v88.035h-10.911V252.531z"/>
	<path fill="#454545" d="M479.364,312.543c0.248,14.755,9.672,20.831,20.583,20.831c7.812,0,12.523-1.364,16.615-3.1l1.859,7.812
		c-3.844,1.735-10.415,3.72-19.963,3.72c-18.475,0-29.51-12.151-29.51-30.255c0-18.103,10.663-32.362,28.146-32.362
		c19.591,0,24.798,17.235,24.798,28.271c0,2.232-0.247,3.968-0.371,5.084h-42.157V312.543z M511.354,304.732
		c0.124-6.943-2.852-17.73-15.127-17.73c-11.035,0-15.871,10.167-16.739,17.73H511.354z"/>
</g>
</svg>
