<?xml version="1.0" ?><svg enable-background="new 0 0 32 32" id="Glyph" version="1.1" viewBox="0 0 32 32" xml:space="preserve" xmlns="http://www.w3.org/2000/svg" xmlns:xlink="http://www.w3.org/1999/xlink"><path d="M24.972,12.288C24.608,7.657,20.723,4,16,4c-4.04,0-7.508,2.624-8.628,6.451C4.181,11.559,2,14.583,2,18  c0,4.411,3.589,8,8,8h13c3.859,0,7-3.141,7-7C30,15.851,27.93,13.148,24.972,12.288z M20.293,19.707l-2-2  c-0.286-0.286-0.372-0.716-0.217-1.09C18.23,16.244,18.596,16,19,16h0.858c-0.447-1.72-1.999-3-3.858-3  c-0.558,0-1.097,0.112-1.602,0.333c-0.508,0.22-1.096-0.01-1.317-0.515c-0.222-0.506,0.009-1.096,0.515-1.317  C14.355,11.169,15.165,11,16,11c2.967,0,5.431,2.167,5.91,5H23c0.404,0,0.77,0.244,0.924,0.617c0.155,0.374,0.069,0.804-0.217,1.09  l-2,2C21.512,19.902,21.256,20,21,20S20.488,19.902,20.293,19.707z M8.293,16.293l2-2c0.391-0.391,1.023-0.391,1.414,0l2,2  c0.286,0.286,0.372,0.716,0.217,1.09C13.77,17.757,13.404,18,13,18h-0.858c0.447,1.721,1.999,3,3.858,3  c0.556,0,1.094-0.112,1.599-0.332c0.505-0.224,1.095,0.011,1.316,0.516c0.222,0.506-0.01,1.096-0.516,1.316  C17.641,22.832,16.833,23,16,23c-2.967,0-5.431-2.167-5.91-5H9c-0.404,0-0.77-0.243-0.924-0.617  C7.921,17.009,8.007,16.579,8.293,16.293z" id="XMLID_348_" style="fill:#fff"/></svg>